<svg width="100" height="100" viewBox="0 0 100 100" fill="none" xmlns="http://www.w3.org/2000/svg">
<path d="M50 96.5455C75.7063 96.5455 96.5454 75.7064 96.5454 50C96.5454 24.2937 75.7063 3.45459 50 3.45459C24.2936 3.45459 3.45453 24.2937 3.45453 50C3.45453 75.7064 24.2936 96.5455 50 96.5455Z" fill="#346173"/>
<path d="M42.9272 34.6912C42.9272 36.0366 42.9272 42.0366 42.9272 42.0366H37.5454V51.0184H42.9272V75.6366H53.9818V51.0002H61.4C61.4 51.0002 62.0909 46.6912 62.4363 41.9821C61.4727 41.9821 54.0363 41.9821 54.0363 41.9821C54.0363 41.9821 54.0363 36.7639 54.0363 35.8366C54.0363 34.9275 55.2363 33.6912 56.4363 33.6912C57.6181 33.6912 60.1272 33.6912 62.4545 33.6912C62.4545 32.473 62.4545 28.2366 62.4545 24.3457C59.3454 24.3457 55.8181 24.3457 54.2727 24.3457C42.6545 24.3639 42.9272 33.3457 42.9272 34.6912Z" fill="white"/>
</svg>
