<svg width="100" height="100" viewBox="0 0 100 100" fill="none" xmlns="http://www.w3.org/2000/svg">
<g clip-path="url(#clip0_30_17)">
<path fill-rule="evenodd" clip-rule="evenodd" d="M0 50C0 22.3858 22.3858 0 50 0C77.6142 0 100 22.3858 100 50C100 77.6142 77.6142 100 50 100C22.3858 100 0 77.6142 0 50ZM50.0025 23.3333C42.7602 23.3333 41.8513 23.365 39.0069 23.4944C36.1679 23.6244 34.2302 24.074 32.5346 24.7333C30.7806 25.4144 29.2929 26.3256 27.8106 27.8083C26.3273 29.2906 25.416 30.7783 24.7327 32.5317C24.0717 34.2279 23.6217 36.1663 23.494 39.004C23.3667 41.8485 23.3333 42.7579 23.3333 50.0002C23.3333 57.2425 23.3656 58.1487 23.4944 60.9931C23.625 63.8321 24.0744 65.7698 24.7333 67.4654C25.415 69.2194 26.326 70.7071 27.809 72.1894C29.2906 73.6727 30.7783 74.586 32.5312 75.2673C34.2279 75.9267 36.1662 76.376 39.0046 76.506C41.8492 76.6356 42.7575 76.6673 49.9992 76.6673C57.2421 76.6673 58.1481 76.6356 60.9927 76.506C63.8315 76.376 65.7715 75.9267 67.4683 75.2673C69.2217 74.586 70.7071 73.6727 72.1887 72.1894C73.6721 70.7071 74.5833 69.2194 75.2667 67.466C75.9223 65.7698 76.3723 63.8315 76.5056 60.9937C76.6333 58.1492 76.6667 57.2425 76.6667 50.0002C76.6667 42.7579 76.6333 41.8492 76.5056 39.0046C76.3723 36.1656 75.9223 34.2279 75.2667 32.5323C74.5833 30.7783 73.6721 29.2906 72.1887 27.8083C70.7054 26.325 69.2221 25.414 67.4667 24.7333C65.7665 24.074 63.8277 23.6244 60.9887 23.4944C58.1442 23.365 57.2387 23.3333 49.9942 23.3333H50.0025Z" fill="#346173"/>
<path fill-rule="evenodd" clip-rule="evenodd" d="M47.6102 28.139C48.3202 28.1379 49.1125 28.139 50.0025 28.139C57.1225 28.139 57.9664 28.1646 60.7781 28.2923C63.3781 28.4113 64.7894 28.8457 65.7294 29.2107C66.9737 29.694 67.861 30.2717 68.7937 31.205C69.7271 32.1384 70.305 33.0273 70.7894 34.2719C71.1544 35.2107 71.5894 36.6219 71.7077 39.2219C71.8354 42.0329 71.8633 42.8775 71.8633 49.9942C71.8633 57.1109 71.8354 57.9554 71.7077 60.7665C71.5887 63.3665 71.1544 64.7777 70.7894 65.7165C70.306 66.9611 69.7271 67.8471 68.7937 68.78C67.8604 69.7134 66.9744 70.2911 65.7294 70.7744C64.7904 71.1411 63.3781 71.5744 60.7781 71.6934C57.9671 71.8211 57.1225 71.8488 50.0025 71.8488C42.8819 71.8488 42.0379 71.8211 39.2269 71.6934C36.6269 71.5734 35.2156 71.1388 34.2752 70.7738C33.0306 70.2905 32.1417 69.7127 31.2083 68.7794C30.275 67.8461 29.6973 66.9594 29.2129 65.7144C28.8479 64.7754 28.4129 63.3644 28.2946 60.7644C28.1667 57.9532 28.1412 57.1088 28.1412 49.9875C28.1412 42.8663 28.1667 42.0263 28.2946 39.2152C28.4133 36.6152 28.8479 35.204 29.2129 34.264C29.6962 33.0196 30.275 32.1307 31.2083 31.1973C32.1417 30.264 33.0306 29.6863 34.2752 29.2017C35.2152 28.835 36.6269 28.4017 39.2269 28.2823C41.6869 28.1713 42.6402 28.1379 47.6102 28.1323V28.139ZM64.2371 32.5667C62.4704 32.5667 61.0371 33.9986 61.0371 35.7657C61.0371 37.5323 62.4704 38.9657 64.2371 38.9657C66.0037 38.9657 67.4371 37.5323 67.4371 35.7657C67.4371 33.999 66.0037 32.5667 64.2371 32.5667ZM50.0025 36.3057C42.4396 36.3057 36.3079 42.4375 36.3079 50.0002C36.3079 57.5632 42.4396 63.6921 50.0025 63.6921C57.5654 63.6921 63.6948 57.5632 63.6948 50.0002C63.6948 42.4375 57.5654 36.3057 50.0025 36.3057Z" fill="#346173"/>
<path fill-rule="evenodd" clip-rule="evenodd" d="M50.0025 41.1113C54.9115 41.1113 58.8915 45.0909 58.8915 50.0003C58.8915 54.9092 54.9115 58.8892 50.0025 58.8892C45.0929 58.8892 41.1136 54.9092 41.1136 50.0003C41.1136 45.0909 45.0929 41.1113 50.0025 41.1113Z" fill="#346173"/>
</g>
<defs>
<clipPath id="clip0_30_17">
<rect width="100" height="100" fill="white"/>
</clipPath>
</defs>
</svg>
