<svg width="100" height="100" viewBox="0 0 100 100" fill="none" xmlns="http://www.w3.org/2000/svg">
<g clip-path="url(#clip0_30_26)">
<path d="M50.0002 99.9996C77.6146 99.9996 100 77.6139 100 49.9998C100 22.3857 77.6146 0 50.0002 0C22.3859 0 0 22.3857 0 49.9998C0 77.6139 22.3859 99.9996 50.0002 99.9996Z" fill="#346173"/>
<path fill-rule="evenodd" clip-rule="evenodd" d="M50 0C77.596 0 100 22.4041 100 49.9998C100 77.5955 77.596 99.9996 50 99.9996C22.4042 99.9996 0 77.5955 0 49.9998C0 22.4041 22.4042 0 50 0ZM50 1.56239C76.7336 1.56239 98.4377 23.2664 98.4377 49.9998C98.4377 76.733 76.7336 98.437 50 98.437C23.2667 98.437 1.56255 76.733 1.56255 49.9998C1.56255 23.2664 23.2667 1.56239 50 1.56239Z" fill="white"/>
<path fill-rule="evenodd" clip-rule="evenodd" d="M51.6729 33.1404V17.8887H62.2583C62.2821 17.9715 62.3053 17.9775 62.327 17.8887L62.3586 18.1355L62.3918 18.3783L62.4264 18.6176L62.4627 18.8539L62.5006 19.0873L62.5403 19.3186L62.5815 19.5479L62.6247 19.7754L62.6696 20.0016L62.7165 20.2268L62.7377 20.3258C64.6133 28.9674 70.3065 32.8129 78.0434 33.1434V44.1082C72.4295 44.2816 67.3346 42.6988 62.7377 39.4307V61.8186C62.7377 73.0182 53.601 82.1111 42.3471 82.1111C31.0934 82.1111 21.9567 73.0182 21.9567 61.8186C21.9567 50.6188 31.0934 41.526 42.3471 41.526C43.2737 41.526 44.1858 41.5875 45.0794 41.707V52.758C44.2149 52.4947 43.2975 52.3531 42.3471 52.3531C37.1932 52.3531 33.0088 56.5174 33.0088 61.6467C33.0088 66.7758 37.1932 70.9402 42.3471 70.9402C47.4434 70.9402 51.5917 66.8686 51.6838 61.8186H51.6874V33.1404H51.6729Z" fill="white"/>
</g>
<defs>
<clipPath id="clip0_30_26">
<rect width="100" height="100" fill="white"/>
</clipPath>
</defs>
</svg>
